<svg xmlns="http://www.w3.org/2000/svg" viewBox="0 0 1770 900">
  <polygon fill="#589dee" points="1017 450 599 900 1456 900"/>
  <polygon fill="#4c53a2" points="1017 450 932.9 900 1456 900"/>
  <polygon fill="#589dee" points="0 900 458 662 876 900"/>
  <polygon fill="#4d79f3" points="397 900 458 662 876 900"/>
  <polygon fill="#287bec" points="1263 546 1612 900 936 900"/>
  <polygon fill="#01196c" points="1263 546 1612 900 1222 900"/>
  <polygon fill="#2b55ea" points="701 695 946 900 427 900"/>
  <polygon fill="#121153" points="647 900 701 695 946 900"/>
  <polygon fill="#4d79f3" points="1770 900 1461 632 1156 900"/>
  <polygon fill="#01196c" points="1770 900 1461 632 1425 900"/>
  <polygon fill="#592da6" points="1270 900 1031 687 785 900"/>
  <polygon fill="#01196c" points="1003 900 1270 900 1031 687"/>
</svg>